<svg xmlns="http://www.w3.org/2000/svg" width="15.861" height="16" viewBox="0 0 15.861 16">
  <g id="catalogsIcon" transform="translate(0 -4)" opacity="0.8">
    <path id="Path_545" data-name="Path 545" d="M6.779,24.546a1.236,1.236,0,0,1-1.233,1.233H1.233A1.236,1.236,0,0,1,0,24.546V20.233A1.236,1.236,0,0,1,1.233,19H5.546a1.236,1.236,0,0,1,1.233,1.233Z" transform="translate(0 -5.779)"/>
    <path id="Path_546" data-name="Path 546" d="M20.876,21.849H13.463c-.278,0-.463-.247-.463-.616v-.616c0-.37.185-.616.463-.616h7.413Z" transform="translate(-5.015 -6.156)"/>
    <path id="Path_547" data-name="Path 547" d="M18.209,26.849H13.4c-.24,0-.4-.247-.4-.616v-.616c0-.37.16-.616.4-.616h4.808Z" transform="translate(-5.082 -8.082)"/>
    <path id="Path_548" data-name="Path 548" d="M6.779,9.546a1.236,1.236,0,0,1-1.233,1.233H1.233A1.236,1.236,0,0,1,0,9.546V5.233A1.236,1.236,0,0,1,1.233,4H5.546A1.236,1.236,0,0,1,6.779,5.233Z"/>
    <path id="Path_549" data-name="Path 549" d="M20.876,6.849H13.463c-.278,0-.463-.247-.463-.616V5.616c0-.37.185-.616.463-.616h7.413Z" transform="translate(-5.015 -0.384)"/>
    <path id="Path_550" data-name="Path 550" d="M18.209,11.849H13.4c-.24,0-.4-.247-.4-.616v-.616c0-.37.16-.616.4-.616h4.808Z" transform="translate(-5.082 -2.309)"/>
  </g>
</svg>
