<svg xmlns="http://www.w3.org/2000/svg" width="15.223" height="16" viewBox="0 0 15.223 16">
  <path id="companyIcon" d="M12.641,18.253h2.573v4.5H12.641ZM19,8.175V22.752H16.388V17.666a.589.589,0,0,0-.587-.587H12.055a.586.586,0,0,0-.587.587v5.086H8.847V10.278A1.422,1.422,0,0,1,9.875,8.915l7.312-2.108A1.424,1.424,0,0,1,19,8.175Zm-5.727,6.378a.581.581,0,0,0-.587-.587H11.631a.587.587,0,1,0,0,1.175h1.058a.585.585,0,0,0,.587-.587Zm0-2.608a.586.586,0,0,0-.587-.587H11.631a.587.587,0,0,0,0,1.175h1.058a.585.585,0,0,0,.587-.587Zm3.529,2.608h0a.587.587,0,0,0-.587-.587H15.161a.587.587,0,1,0,0,1.175h1.057a.589.589,0,0,0,.587-.587Zm0-2.608h0a.59.59,0,0,0-.587-.587H15.161a.587.587,0,0,0,0,1.175h1.057a.589.589,0,0,0,.587-.587Zm6.942,2.02-3.571-1.027v9.814H24.07V14.389a.447.447,0,0,0-.324-.423Z" transform="translate(-8.848 -6.752)" opacity="0.8"/>
</svg>
