<svg xmlns="http://www.w3.org/2000/svg" width="15.983" height="16" viewBox="0 0 15.983 16">
  <path id="contactIcon" d="M14.255,1.7H5.145A3.442,3.442,0,0,0,1.7,5.145v9.093A3.446,3.446,0,0,0,5.145,17.7h9.093a3.442,3.442,0,0,0,3.445-3.445V5.145A3.418,3.418,0,0,0,14.255,1.7Zm.381,11.942c-.248.265-.547.513-.778.8a1.563,1.563,0,0,1-1.325.513,5.928,5.928,0,0,1-2.087-.613,11.3,11.3,0,0,1-3.81-2.981,10.7,10.7,0,0,1-1.855-3.1,4.084,4.084,0,0,1-.3-1.706,1.49,1.49,0,0,1,.447-.944l.861-.861a.824.824,0,0,1,1.226,0c.232.215.464.464.7.7l.679.679a.813.813,0,0,1,0,1.259c-.282.282-.563.563-.861.845a.164.164,0,0,0-.05.215,5.007,5.007,0,0,0,.762,1.242,9.214,9.214,0,0,0,2.137,1.954c.182.116.381.182.563.3a.163.163,0,0,0,.232-.05l.861-.861a.8.8,0,0,1,1.226,0L14.636,12.4A.818.818,0,0,1,14.636,13.642Z" transform="translate(-1.7 -1.7)" opacity="0.8"/>
</svg>
