<svg xmlns="http://www.w3.org/2000/svg" width="16.843" height="16" viewBox="0 0 16.843 16">
  <path id="distributionMap" d="M4.337,8.818H3.47a1.685,1.685,0,0,0-1.613,1.209C1.365,11.706.333,15.2.076,16.077A1.887,1.887,0,0,0,1.882,18.5H14.96a1.884,1.884,0,0,0,1.807-2.413c-.257-.876-1.288-4.37-1.781-6.051a1.685,1.685,0,0,0-1.613-1.221h-.867a12.383,12.383,0,0,1-1.086,2.16,4.1,4.1,0,0,1,1.52.884,1.645,1.645,0,0,1,.535,1.166,1.975,1.975,0,0,1-1.095,1.6,7.824,7.824,0,0,1-3.958.926,7.825,7.825,0,0,1-3.958-.926,1.975,1.975,0,0,1-1.095-1.6A1.645,1.645,0,0,1,3.9,11.862a4.1,4.1,0,0,1,1.52-.884,12.384,12.384,0,0,1-1.086-2.16Zm9.684,5.272a3.7,3.7,0,0,1-1.179,1.158.427.427,0,0,0,.446.728,4.488,4.488,0,0,0,1.449-1.453.421.421,0,1,0-.72-.421Zm-11.916.434a4.488,4.488,0,0,0,1.449,1.453.421.421,0,0,0,.459-.707,3.7,3.7,0,0,1-1.179-1.158.421.421,0,1,0-.72.421ZM10.914,11.7a7.514,7.514,0,0,1-.543.639A3,3,0,0,1,8.421,13.45a3.036,3.036,0,0,1-1.958-1.112A7.517,7.517,0,0,1,5.92,11.7a3.8,3.8,0,0,0-1.238.6.984.984,0,0,0-.472.728c0,.341.282.628.695.884a6.981,6.981,0,0,0,3.516.8,6.981,6.981,0,0,0,3.516-.8c.421-.257.695-.543.695-.884a.984.984,0,0,0-.472-.728,3.8,3.8,0,0,0-1.238-.6Zm-2.493.909a1.26,1.26,0,0,1-.632-.232,5.251,5.251,0,0,1-1.242-1.242A9.347,9.347,0,0,1,4.632,6.291a3.79,3.79,0,0,1,7.579,0,9.347,9.347,0,0,1-1.916,4.842,5.251,5.251,0,0,1-1.242,1.242,1.26,1.26,0,0,1-.632.232Zm0-8.421A2.1,2.1,0,1,0,9.91,4.8a2.105,2.105,0,0,0-1.489-.616Zm0,.842A1.263,1.263,0,1,1,7.158,6.291,1.263,1.263,0,0,1,8.421,5.028Z" transform="translate(0 -2.502)" fill-rule="evenodd" opacity="0.8"/>
</svg>
