<svg xmlns="http://www.w3.org/2000/svg" width="11.733" height="16" viewBox="0 0 11.733 16">
  <g id="helpAndSupport" transform="translate(-5 -1)" opacity="0.8">
    <path id="Path_543" data-name="Path 543" d="M16.733,16.467A.533.533,0,0,1,16.2,17H5.533A.533.533,0,0,1,5,16.467a5.867,5.867,0,0,1,11.733,0ZM10.867,3.133a3.2,3.2,0,1,0,3.2,3.2,3.2,3.2,0,0,0-3.2-3.2Zm-4.8,4.8A1.068,1.068,0,0,0,7.133,6.867V5.8A1.067,1.067,0,1,0,5,5.8V6.867A1.068,1.068,0,0,0,6.067,7.933Zm4.8-5.867a4.264,4.264,0,0,1,3.594,1.976,2.118,2.118,0,0,1,1.029-.358,5.322,5.322,0,0,0-9.245,0,2.118,2.118,0,0,1,1.029.358,4.264,4.264,0,0,1,3.594-1.976Zm4.8,2.667A1.068,1.068,0,0,0,14.6,5.8V6.867a1.065,1.065,0,0,0,.489.894A1.6,1.6,0,0,1,13.533,9a.533.533,0,0,0,0,1.067,2.664,2.664,0,0,0,2.625-2.259,1.064,1.064,0,0,0,.575-.941V5.8A1.068,1.068,0,0,0,15.667,4.733Z"/>
  </g>
</svg>
