<svg xmlns="http://www.w3.org/2000/svg" width="33.317" height="33.317" viewBox="0 0 33.317 33.317">
  <path id="Icon_awesome-linkedin" data-name="Icon awesome-linkedin" d="M30.937,2.25H2.372A2.39,2.39,0,0,0,0,4.652V33.165a2.39,2.39,0,0,0,2.372,2.4H30.937a2.4,2.4,0,0,0,2.38-2.4V4.652A2.4,2.4,0,0,0,30.937,2.25ZM10.069,30.807H5.131v-15.9h4.945v15.9ZM7.6,12.736a2.863,2.863,0,1,1,2.863-2.863A2.864,2.864,0,0,1,7.6,12.736ZM28.58,30.807H23.642V23.073c0-1.844-.037-4.217-2.566-4.217-2.573,0-2.967,2.008-2.967,4.083v7.868H13.171v-15.9h4.737v2.172h.067a5.2,5.2,0,0,1,4.678-2.566c5,0,5.927,3.295,5.927,7.578Z" transform="translate(0 -2.25)" fill="#bc0a0e"/>
</svg>
