<svg xmlns="http://www.w3.org/2000/svg" width="16.546" height="14" viewBox="0 0 16.546 14">
  <path id="Path_517" data-name="Path 517" d="M27.136,22.75l-7.26-5.543a1.02,1.02,0,0,0-1.232,0L11.39,22.75a1.007,1.007,0,0,0-.385.69.976.976,0,0,0,.252.754,1.01,1.01,0,0,0,.757.331,1.083,1.083,0,0,0,.385-.083v5.9a.66.66,0,0,0,.665.656h3.781a.66.66,0,0,0,.665-.656v-3.3a.661.661,0,0,1,.665-.656h2.2a.661.661,0,0,1,.665.656v3.3A.66.66,0,0,0,21.7,31h3.781a.66.66,0,0,0,.665-.656V24.435a.992.992,0,0,0,1.393-1,.989.989,0,0,0-.384-.69Z" transform="translate(-10.999 -17)" fill="#32312d" fill-rule="evenodd"/>
</svg>
