<svg xmlns="http://www.w3.org/2000/svg" width="11.017" height="8.263" viewBox="0 0 11.017 8.263">
  <path id="messageIcon" d="M10.808,7.228a.13.13,0,0,1,.209.1v4.4a1.033,1.033,0,0,1-1.033,1.033H1.033A1.033,1.033,0,0,1,0,11.73v-4.4a.129.129,0,0,1,.209-.1c.482.374,1.121.85,3.316,2.444A3.849,3.849,0,0,0,5.508,10.7,3.851,3.851,0,0,0,7.494,9.675C9.689,8.08,10.326,7.6,10.808,7.228Zm-5.3,2.78c.5.009,1.218-.628,1.579-.891,2.855-2.072,3.073-2.253,3.731-2.769a.515.515,0,0,0,.2-.407V5.533A1.033,1.033,0,0,0,9.984,4.5H1.033A1.033,1.033,0,0,0,0,5.533v.409a.518.518,0,0,0,.2.407c.658.514.876.7,3.731,2.769C4.291,9.38,5.009,10.017,5.508,10.008Z" transform="translate(0 -4.5)" fill="#fff"/>
</svg>
