<svg xmlns="http://www.w3.org/2000/svg" width="13.797" height="16" viewBox="0 0 13.797 16">
  <path id="myInvoices" d="M21.557,14.51v-11a1.455,1.455,0,0,0-2.47-1.051l-.675.649a.713.713,0,0,1-.984,0L15.669,1.421a1.455,1.455,0,0,0-2.021,0L11.889,3.112a.713.713,0,0,1-.984,0l-.675-.649A1.456,1.456,0,0,0,7.76,3.514v11a1.455,1.455,0,0,0,2.47,1.051l.675-.649a.713.713,0,0,1,.984,0L13.648,16.6a1.455,1.455,0,0,0,2.021,0l1.759-1.691a.713.713,0,0,1,.984,0l.675.649a1.456,1.456,0,0,0,2.47-1.051ZM10.98,10.531h7.358a.375.375,0,1,1,0,.75H10.98a.375.375,0,0,1,0-.75Zm7.358-3.037H10.98a.375.375,0,0,1,0-.75h7.358a.375.375,0,1,1,0,.75Z" transform="translate(-7.761 -1.012)" fill-rule="evenodd" opacity="0.8"/>
</svg>
