<svg xmlns="http://www.w3.org/2000/svg" width="12.285" height="16" viewBox="0 0 12.285 16">
  <path id="myOrders" d="M32.186,26.167l-.571-10.959a.58.58,0,0,0-.571-.551H29.369v-.531a3.327,3.327,0,0,0-6.653,0v.531H21.043a.58.58,0,0,0-.571.551L19.9,26.188a.568.568,0,0,0,.163.429.544.544,0,0,0,.408.184H31.614a.57.57,0,0,0,.571-.571v-.061Zm-8.653-9.184a.612.612,0,1,1,.612-.612.6.6,0,0,1-.612.612Zm4.122-2.327H24.431v-.531a1.612,1.612,0,1,1,3.224,0Zm.9,2.327a.612.612,0,1,1,.612-.612.6.6,0,0,1-.612.612Zm0,0" transform="translate(-19.9 -10.8)" opacity="0.8"/>
</svg>
