<svg xmlns="http://www.w3.org/2000/svg" width="16" height="16" viewBox="0 0 16 16">
  <path id="newAndUpdates" d="M13,5a8,8,0,1,0,8,8A8,8,0,0,0,13,5ZM9.924,17.231a.2.2,0,0,1-.178-.089L7.009,13.658a.185.185,0,0,1,0-.231.162.162,0,0,1,.178-.142H8.769a4.318,4.318,0,0,1,4.444-4.533c.089,0,.089,0,0,.036-.391.338-2.133,1.1-2.169,4.516h1.6a.226.226,0,0,1,.178.142c.036.089.053.178,0,.231L10.1,17.16A.272.272,0,0,1,9.924,17.231ZM18.813,12.7H17.231a4.318,4.318,0,0,1-4.444,4.533c-.089,0-.089,0,0-.036.391-.32,2.133-1.084,2.169-4.5h-1.6a.226.226,0,0,1-.178-.142.185.185,0,0,1,0-.231L15.9,8.84a.219.219,0,0,1,.178-.089.2.2,0,0,1,.178.089l2.72,3.484a.185.185,0,0,1,0,.231C18.991,12.644,18.9,12.7,18.813,12.7Z" transform="translate(-5 -5)" opacity="0.8"/>
</svg>
