<svg xmlns="http://www.w3.org/2000/svg" width="11.761" height="16" viewBox="0 0 11.761 16">
  <path id="orderGuide" d="M2.633,0A1.449,1.449,0,0,0,1.192,1.442V14.558A1.449,1.449,0,0,0,2.633,16h8.879a1.449,1.449,0,0,0,1.441-1.442V1.442A1.449,1.449,0,0,0,11.512,0ZM7.072,2.321A3.352,3.352,0,1,1,3.72,5.673,3.36,3.36,0,0,1,7.072,2.321Zm0,.938A2.413,2.413,0,1,0,9.482,5.673,2.409,2.409,0,0,0,7.072,3.259Zm0,.778a.413.413,0,1,1-.412.411.413.413,0,0,1,.412-.411Zm0,.924a.471.471,0,0,1,.47.472v1.5a.471.471,0,1,1-.942,0v-1.5a.471.471,0,0,1,.472-.472ZM4.491,10.509H9.65a.471.471,0,1,1,0,.941H4.491a.471.471,0,0,1,0-.941Zm0,2.23H9.65a.471.471,0,1,1,0,.941H4.491a.471.471,0,0,1,0-.941Z" transform="translate(-1.192 0)" fill-rule="evenodd"/>
</svg>
