<svg xmlns="http://www.w3.org/2000/svg" width="18.962" height="18.962" viewBox="0 0 18.962 18.962">
  <path id="Icon_metro-plus" data-name="Icon metro-plus" d="M20.94,9.039H14.422V2.521a.593.593,0,0,0-.593-.593H10.274a.593.593,0,0,0-.593.593V9.039H3.163a.593.593,0,0,0-.593.593v3.555a.593.593,0,0,0,.593.593H9.681V20.3a.593.593,0,0,0,.593.593h3.555a.593.593,0,0,0,.593-.593V13.779H20.94a.593.593,0,0,0,.593-.593V9.631A.593.593,0,0,0,20.94,9.039Z" transform="translate(-2.571 -1.928)" fill="#fff"/>
</svg>
