<svg xmlns="http://www.w3.org/2000/svg" width="14.104" height="16" viewBox="0 0 14.104 16">
  <g id="productsIcon" transform="translate(-8.347 -3.015)" opacity="0.8">
    <path id="Path_544" data-name="Path 544" d="M15.513,13.179v1.306a.1.1,0,0,0,.05.087l1.022.59a.1.1,0,0,0,.151-.087V13.331L20.953,10.9l1.329.768a.328.328,0,0,1,.168.291v4.483a.328.328,0,0,1-.168.291L18.4,18.968a.328.328,0,0,1-.335,0l-3.882-2.241a.328.328,0,0,1-.168-.291V12.38l1.2.692a.88.88,0,0,0,.3.107Zm.3-10.118a.328.328,0,0,0-.335,0L11.6,5.3a.328.328,0,0,0-.168.291v4.483a.328.328,0,0,0,.168.291l3.882,2.241a.328.328,0,0,0,.335,0L19.7,10.366a.328.328,0,0,0,.168-.291V5.592A.328.328,0,0,0,19.7,5.3l-1.329-.768L14.152,6.969V8.713A.1.1,0,0,1,14,8.8l-1.022-.59a.1.1,0,0,1-.05-.087V6.263l4.217-2.435-1.329-.768ZM10.9,8.745l-1.051.607v1.86a.1.1,0,0,0,.05.087l1.022.59a.1.1,0,0,0,.151-.087V10.6a.875.875,0,0,0,.264.233l2.148,1.24v3.194l-.747.431a.328.328,0,0,1-.335,0L8.515,13.454a.328.328,0,0,1-.168-.291V8.681a.328.328,0,0,1,.168-.291L10.9,7.016Z" fill-rule="evenodd"/>
  </g>
</svg>
