<svg xmlns="http://www.w3.org/2000/svg" width="15.92" height="16" viewBox="0 0 15.92 16">
  <g id="settingsIcon" transform="translate(13146 -6923)" opacity="0.8">
    <path id="Path_541" data-name="Path 541" d="M38.812,35.812a3,3,0,1,1-3-3,3,3,0,0,1,3,3" transform="translate(-13173.812 6895.188)"/>
    <path id="Path_542" data-name="Path 542" d="M22.086,15.907l-.857-.514a1.321,1.321,0,0,1-.657-1.171,1.344,1.344,0,0,1,.657-1.143l.886-.514a.7.7,0,0,0,.257-.314.486.486,0,0,0-.057-.4L20.429,8.621a.526.526,0,0,0-.714-.2l-.857.514a1.4,1.4,0,0,1-1.343,0,1.309,1.309,0,0,1-.657-1.143v-1a.542.542,0,0,0-.543-.543H12.572a.542.542,0,0,0-.543.543v1a1.343,1.343,0,0,1-2,1.171l-.857-.486a.519.519,0,0,0-.714.2l-1.886,3.2a.628.628,0,0,0-.057.4.412.412,0,0,0,.257.314l.857.514a1.321,1.321,0,0,1,.657,1.171,1.344,1.344,0,0,1-.657,1.143l-.886.514a.7.7,0,0,0-.257.314.486.486,0,0,0,.057.4l1.886,3.229a.526.526,0,0,0,.714.2l.886-.514a1.4,1.4,0,0,1,1.343,0,1.309,1.309,0,0,1,.657,1.143v1a.542.542,0,0,0,.543.543h3.743a.542.542,0,0,0,.543-.543v-1a1.311,1.311,0,0,1,.686-1.143,1.345,1.345,0,0,1,1.314,0l.886.514a.519.519,0,0,0,.714-.2l1.857-3.229a.628.628,0,0,0,.057-.4.5.5,0,0,0-.286-.343Zm-7.657,2.629a4.286,4.286,0,1,1,4.286-4.286,4.28,4.28,0,0,1-4.286,4.286Z" transform="translate(-13152.47 6916.75)"/>
  </g>
</svg>
