<svg xmlns="http://www.w3.org/2000/svg" width="14.934" height="16" viewBox="0 0 14.934 16">
  <path id="vendorsIcon" d="M12.65,7.392h2.133a1.6,1.6,0,0,1,1.6,1.6v1.067a1.067,1.067,0,0,1-1.067,1.067H14.25v1.067h4.8a.533.533,0,0,1,.533.533v.8a.533.533,0,0,1-1.067,0v-.267H14.25v.267a.533.533,0,0,1-1.067,0v-.267H8.917v.267a.533.533,0,0,1-1.067,0v-.8a.533.533,0,0,1,.533-.533h4.8V11.125H12.117a1.067,1.067,0,0,1-1.067-1.067V8.992a1.6,1.6,0,0,1,1.6-1.6Zm1.067,0A2.133,2.133,0,1,1,15.85,5.258,2.134,2.134,0,0,1,13.717,7.392Zm-4.8,7.467a1.6,1.6,0,0,1,1.6,1.6v1.067a1.6,1.6,0,0,1-1.6,1.6H7.85a1.6,1.6,0,0,1-1.6-1.6V16.458a1.6,1.6,0,0,1,1.6-1.6v1.333a.533.533,0,1,0,1.067,0Zm5.333,0a1.6,1.6,0,0,1,1.6,1.6v1.067a1.6,1.6,0,0,1-1.6,1.6H13.183a1.6,1.6,0,0,1-1.6-1.6V16.458a1.6,1.6,0,0,1,1.6-1.6v1.333a.533.533,0,1,0,1.067,0Zm5.333,0a1.6,1.6,0,0,1,1.6,1.6v1.067a1.6,1.6,0,0,1-1.6,1.6H18.517a1.6,1.6,0,0,1-1.6-1.6V16.458a1.6,1.6,0,0,1,1.6-1.6v1.333a.533.533,0,1,0,1.067,0Z" transform="translate(-6.25 -3.125)" fill-rule="evenodd" opacity="0.8"/>
</svg>
