<svg id="freepik--background-simple--inject-62" xmlns="http://www.w3.org/2000/svg" width="246.634" height="216.143" viewBox="0 0 246.634 216.143">
  <path id="Path_409" data-name="Path 409" d="M199.423,81.341a107.475,107.475,0,0,0-5.553-9.725C170.264,35.636,107.06,16.044,75.742,53.243c-7.467,8.865-10.067,19.582-15.1,29.747-11.424,23.129-32.756,36.953-46.166,58.347-10.375,16.6-8.993,37.875-3.2,55.824,6.29,19.5,17.361,33.12,35.07,43.469,19.853,11.608,41.084,8.384,62.544,4.345,9.648-1.817,19.6-3.67,29.465-2.974,12.355.865,24.567,4.361,36.81,6.06,12.744,1.771,25.97,2.185,38.248-1.663,39.323-12.335,48.623-70.119,32.47-103.249-5.722-11.721-15.426-20.764-24.434-29.941C211.727,103.329,205.769,93.635,199.423,81.341Z" transform="translate(-6.79 -33.221)" fill="#f9dede"/>
  <path id="Path_410" data-name="Path 410" d="M199.423,81.341a107.475,107.475,0,0,0-5.553-9.725C170.264,35.636,107.06,16.044,75.742,53.243c-7.467,8.865-10.067,19.582-15.1,29.747-11.424,23.129-32.756,36.953-46.166,58.347-10.375,16.6-8.993,37.875-3.2,55.824,6.29,19.5,17.361,33.12,35.07,43.469,19.853,11.608,41.084,8.384,62.544,4.345,9.648-1.817,19.6-3.67,29.465-2.974,12.355.865,24.567,4.361,36.81,6.06,12.744,1.771,25.97,2.185,38.248-1.663,39.323-12.335,48.623-70.119,32.47-103.249-5.722-11.721-15.426-20.764-24.434-29.941C211.727,103.329,205.769,93.635,199.423,81.341Z" transform="translate(-6.79 -33.221)" fill="#f9dede"/>
</svg>
